<svg width="175" height="32" viewBox="0 0 175 32" fill="none" xmlns="http://www.w3.org/2000/svg">
<path d="M97.522 23.619H101.264V9.54816H97.522V23.619ZM97.522 7.3539H101.264V4.00762H97.522V7.3539Z" fill="white"/>
<path d="M103.675 28.227H107.417V22.0282H107.472C108.269 23.235 109.563 24.0305 111.543 24.0305C115.175 24.0305 117.651 21.1505 117.651 16.5974C117.651 12.2087 115.258 9.16416 111.516 9.16416C109.59 9.16416 108.269 10.0694 107.362 11.3036H107.279V9.54816H103.675V28.227ZM110.746 20.931C108.517 20.931 107.334 19.2579 107.334 16.707C107.334 14.1836 108.269 12.1814 110.608 12.1814C112.919 12.1814 113.854 14.0465 113.854 16.707C113.854 19.3676 112.644 20.931 110.746 20.931Z" fill="white"/>
<path d="M125.115 24.0305C128.637 24.0305 131.058 22.3299 131.058 19.5047C131.058 16.2134 128.444 15.555 126.078 15.0614C124.069 14.6499 122.199 14.5402 122.199 13.3334C122.199 12.3185 123.162 11.7699 124.62 11.7699C126.216 11.7699 127.179 12.3185 127.343 13.827H130.727C130.453 11.0019 128.389 9.16416 124.675 9.16416C121.456 9.16416 118.925 10.6179 118.925 13.6625C118.925 16.7345 121.401 17.4202 123.932 17.9139C125.858 18.2979 127.646 18.435 127.646 19.779C127.646 20.7665 126.711 21.3974 125.06 21.3974C123.382 21.3974 122.226 20.6842 121.979 19.0659H118.512C118.732 22.0556 121.016 24.0305 125.115 24.0305Z" fill="white"/>
<path d="M145.264 23.619V9.54816H141.522V17.667C141.522 19.5322 140.449 20.8487 138.688 20.8487C137.092 20.8487 136.35 19.9436 136.35 18.2979V9.54816H132.635V18.9287C132.635 22.0007 134.396 24.003 137.533 24.003C139.514 24.003 140.614 23.2625 141.577 21.9734H141.66V23.619H145.264Z" fill="white"/>
<path d="M147.684 23.619H151.426V15.4454C151.426 13.5802 152.444 12.3734 153.957 12.3734C155.333 12.3734 156.13 13.1962 156.13 14.787V23.619H159.872V15.4454C159.872 13.5802 160.835 12.3734 162.403 12.3734C163.779 12.3734 164.577 13.1962 164.577 14.787V23.619H168.319V14.1562C168.319 11.0842 166.64 9.16416 163.668 9.16416C161.881 9.16416 160.394 10.0967 159.432 11.6327H159.377C158.689 10.1516 157.259 9.16416 155.47 9.16416C153.517 9.16416 152.141 10.1516 151.371 11.4407H151.288V9.54816H147.684V23.619Z" fill="white"/>
<path d="M0 23.619H3.74169V4.00762H0V23.619Z" fill="white"/>
<path d="M12.8907 24.0305C17.2651 24.0305 20.264 20.7939 20.264 16.5974C20.264 12.4007 17.2651 9.16416 12.8907 9.16416C8.51616 9.16416 5.51732 12.4007 5.51732 16.5974C5.51732 20.7939 8.51616 24.0305 12.8907 24.0305ZM12.8907 21.1779C10.5796 21.1779 9.31403 19.3402 9.31403 16.5974C9.31403 13.8545 10.5796 11.9894 12.8907 11.9894C15.1742 11.9894 16.4673 13.8545 16.4673 16.5974C16.4673 19.3402 15.1742 21.1779 12.8907 21.1779Z" fill="white"/>
<path d="M28.2211 28.419C30.312 28.419 32.1279 27.9254 33.3109 26.8282C34.3564 25.8682 34.9892 24.5242 34.9892 22.5494V9.54816H31.3851V11.0294H31.33C30.4771 9.84992 29.184 9.16416 27.4232 9.16416C23.8467 9.16416 21.3155 11.8522 21.3155 16.0487C21.3155 20.3002 24.3969 22.7687 27.5333 22.7687C29.3216 22.7687 30.3946 22.0556 31.2199 21.123H31.3025V22.659C31.3025 24.579 30.2845 25.5939 28.1661 25.5939C26.4328 25.5939 25.6349 24.9082 25.3323 24.0305H21.6181C22.0033 26.7734 24.3694 28.419 28.2211 28.419ZM28.1661 19.779C26.2402 19.779 24.9747 18.3802 24.9747 15.9939C24.9747 13.635 26.2402 12.1539 28.1385 12.1539C30.3946 12.1539 31.4951 13.9094 31.4951 15.9665C31.4951 18.051 30.5322 19.779 28.1661 19.779Z" fill="white"/>
<path d="M44.084 24.0305C48.4584 24.0305 51.4573 20.7939 51.4573 16.5974C51.4573 12.4007 48.4584 9.16416 44.084 9.16416C39.7095 9.16416 36.7106 12.4007 36.7106 16.5974C36.7106 20.7939 39.7095 24.0305 44.084 24.0305ZM44.084 21.1779C41.7729 21.1779 40.5074 19.3402 40.5074 16.5974C40.5074 13.8545 41.7729 11.9894 44.084 11.9894C46.3675 11.9894 47.6606 13.8545 47.6606 16.5974C47.6606 19.3402 46.3675 21.1779 44.084 21.1779Z" fill="white"/>
<path d="M169.678 7.2381C169.678 6.60691 170.192 6.09524 170.825 6.09524H173.117C173.75 6.09524 174.264 6.60691 174.264 7.2381C174.264 7.86928 173.75 8.38096 173.117 8.38096H170.825C170.192 8.38096 169.678 7.86928 169.678 7.2381Z" fill="white"/>
<path fill-rule="evenodd" clip-rule="evenodd" d="M74.1489 0C83.0122 0 90.1981 7.16345 90.1981 16C90.1981 24.8366 83.0122 32 74.1489 32C65.2853 32 58.1 24.8366 58.1 16C58.1 7.16345 65.2853 0 74.1489 0ZM73.5688 1.19727C71.7379 1.45415 69.9945 2.92086 68.6411 5.37392C68.2486 6.08546 67.8944 6.87157 67.5858 7.72035C69.4259 7.25934 71.4474 6.98754 73.5688 6.9455V1.19727ZM66.2293 8.10464C66.6132 6.90366 67.0827 5.79872 67.6246 4.81652C68.2954 3.60047 69.0916 2.55036 69.9887 1.74382C65.1107 3.15618 61.2658 6.98943 59.8491 11.8526C60.6581 10.9582 61.7114 10.1645 62.9312 9.49568C63.9164 8.95544 65.0247 8.48728 66.2293 8.10464ZM65.8439 9.45688C65.3814 11.2914 65.1089 13.3067 65.0666 15.4217H59.3008C59.5585 13.5963 61.0297 11.8582 63.4903 10.5091C64.204 10.1178 64.9925 9.76464 65.8439 9.45688ZM66.2271 15.4217C66.275 13.1136 66.6083 10.9467 67.1597 9.03216C69.0802 8.4824 71.2537 8.15008 73.5688 8.10232V10.6006C72.7051 12.805 70.9436 14.561 68.7325 15.4217H66.2271ZM65.0666 16.5783H59.3008C59.5585 18.4037 61.0297 20.1417 63.4903 21.4909C64.204 21.8822 64.9925 22.2354 65.8439 22.5431C65.3814 20.7086 65.1089 18.6933 65.0666 16.5783ZM67.1597 22.9678C66.6083 21.0533 66.275 18.8864 66.2271 16.5783H68.7325C70.9436 17.439 72.7051 19.195 73.5688 21.3994V23.8977C71.2537 23.8499 69.0802 23.5176 67.1597 22.9678ZM66.2293 23.8954C65.0247 23.5127 63.9164 23.0446 62.9312 22.5043C61.7114 21.8355 60.6581 21.0418 59.8491 20.1474C61.2658 25.0106 65.1107 28.8438 69.9887 30.2562C69.0916 29.4496 68.2954 28.3995 67.6246 27.1834C67.0827 26.2013 66.6132 25.0963 66.2293 23.8954ZM73.5688 30.8027C71.7379 30.5458 69.9945 29.0791 68.6411 26.6261C68.2486 25.9146 67.8944 25.1284 67.5858 24.2797C69.4259 24.7406 71.4474 25.0125 73.5688 25.0545V30.8027ZM78.309 30.2562C79.2061 29.4496 80.0022 28.3995 80.673 27.1834C81.2147 26.2013 81.6849 25.0963 82.0685 23.8954C83.2729 23.5127 84.3811 23.0446 85.3665 22.5043C86.5862 21.8355 87.6399 21.0418 88.4487 20.1474C87.0316 25.0106 83.1871 28.8438 78.309 30.2562ZM80.7123 24.2797C80.4034 25.1284 80.0487 25.9146 79.6563 26.6261C78.3032 29.0791 76.5598 30.5458 74.7289 30.8027V25.0545C76.8503 25.0125 78.8718 24.7406 80.7123 24.2797ZM82.4536 22.5431C83.305 22.2354 84.0939 21.8822 84.8072 21.4909C87.2683 20.1418 88.7392 18.4037 88.9968 16.5783H83.2312C83.1887 18.6933 82.9159 20.7086 82.4536 22.5431ZM82.0709 16.5783C82.0227 18.8864 81.6897 21.0533 81.1376 22.9678C79.2175 23.5176 77.044 23.8499 74.7289 23.8977V21.4012C75.5923 19.1961 77.3543 17.4393 79.566 16.5783H82.0709ZM83.2312 15.4217H88.9968C88.7392 13.5963 87.2683 11.8582 84.8072 10.5091C84.0939 10.1178 83.305 9.76464 82.4536 9.45688C82.9159 11.2914 83.1887 13.3067 83.2312 15.4217ZM81.1376 9.03216C81.6897 10.9467 82.0227 13.1136 82.0709 15.4217H79.566C77.3543 14.5607 75.5923 12.8039 74.7289 10.5988V8.10232C77.044 8.15008 79.2175 8.4824 81.1376 9.03216ZM82.0685 8.10464C83.2729 8.48728 84.3811 8.95544 85.3665 9.49568C86.5862 10.1645 87.6399 10.9582 88.4487 11.8526C87.0316 6.98943 83.1871 3.15618 78.309 1.74382C79.2061 2.55036 80.0022 3.60047 80.673 4.81652C81.2147 5.79872 81.6849 6.90366 82.0685 8.10464ZM74.7289 1.19727C76.5598 1.45415 78.3032 2.92086 79.6563 5.37392C80.0487 6.08547 80.4034 6.87157 80.7123 7.72035C78.8718 7.25934 76.8503 6.98754 74.7289 6.9455V1.19727Z" fill="white"/>
</svg>
