<svg width="211" height="121" viewBox="0 0 211 121" fill="none" xmlns="http://www.w3.org/2000/svg">
<path fill-rule="evenodd" clip-rule="evenodd" d="M63.1887 0.0308122C65.0498 -0.219729 66.7617 1.08509 67.0123 2.94521L75.5371 66.2049C75.7926 66.1252 76.0597 66.0435 76.3382 65.9603C78.9246 65.1871 82.5013 64.274 87.04 63.4726C86.417 55.4704 89.3622 48.955 93.6593 45.0536C96.0814 42.8544 99.0462 41.3991 102.097 41.1998C105.25 40.9937 108.357 42.1631 110.531 44.9194C114.171 49.533 112.735 55.6277 109.272 60.0843C106.299 63.9093 101.509 67.1579 95.3191 68.8359C95.531 69.164 95.7542 69.4306 95.9781 69.649C96.6827 70.3366 97.6639 70.8102 99.0602 71.0077C102.036 71.4286 106.188 70.4954 110.801 68.6732C115.294 66.8977 119.738 64.4784 123.095 62.4725C124.076 61.8866 124.957 61.3401 125.711 60.8609C122.054 54.3958 123.676 47.1948 127.003 42.4198C128.937 39.6435 131.671 37.3228 134.775 36.3862C138.088 35.3862 141.728 36.0444 144.422 39.1218C147.243 42.3436 147.69 45.9845 146.7 49.3319C145.782 52.4379 143.681 55.1757 141.619 57.3125C139.511 59.4977 137.171 61.3317 135.395 62.6023C135.341 62.6411 135.287 62.6796 135.234 62.7175C136.123 63.6329 137.137 64.1789 138.237 64.4799C140.24 65.0277 142.916 64.861 146.219 63.7763C152.419 61.7398 159.744 56.8216 166.447 50.4585L157.821 13.8176C157.391 11.9906 158.524 10.161 160.352 9.73112C162.18 9.30123 164.011 10.4338 164.441 12.2609L172.153 45.0195C173.547 43.7418 174.981 42.459 176.417 41.1781C176.694 40.9308 176.972 40.6836 177.249 40.4363C179.987 37.9962 182.723 35.5578 185.31 33.0937C191.096 27.5822 195.675 22.3576 197.643 17.4412C198.34 15.6985 200.319 14.8509 202.062 15.548C203.806 16.245 204.654 18.2228 203.956 19.9655C201.391 26.3773 195.811 32.4808 190.001 38.0143C187.328 40.5606 184.507 43.0744 181.783 45.5018C181.503 45.752 181.223 46.0013 180.944 46.2495C179.483 47.5528 178.058 48.829 176.691 50.0814C182.636 52.0648 187.516 53.9655 192.104 56.4929C198.075 59.7825 203.405 64.0482 210.01 70.6812C211.334 72.0115 211.329 74.1632 209.998 75.4873C208.668 76.8114 206.515 76.8063 205.19 75.476C198.859 69.1181 194.04 65.3206 188.821 62.4455C184.685 60.1668 180.205 58.4145 174.334 56.4612L178.098 82.7933C178.363 84.6514 177.071 86.3728 175.213 86.6383C173.354 86.9037 171.631 85.6126 171.366 83.7546L167.748 58.4422C161.49 63.816 154.675 68.1535 148.342 70.2335C144.327 71.5521 140.2 72.0635 136.442 71.0358C133.699 70.2854 131.348 68.7661 129.512 66.5002C128.676 67.0325 127.69 67.6462 126.584 68.3065C123.068 70.4073 118.273 73.0296 113.301 74.9941C108.447 76.9117 102.909 78.4168 98.1072 77.7376C95.6152 77.385 93.1866 76.424 91.2278 74.5127C89.9974 73.3122 89.0594 71.8413 88.3974 70.1352C84.0435 70.8966 80.6639 71.7616 78.2868 72.4721C77.6059 72.6757 77.0072 72.8666 76.4914 73.0388L81.7581 108.834C82.0313 110.691 80.7467 112.418 78.8888 112.691C77.031 112.964 75.3034 111.68 75.0301 109.823L69.8914 74.8969L57.2625 77.6051C61.6857 83.5842 62.9618 90.107 61.9041 96.2954C60.5994 103.929 55.8164 110.691 49.8959 115.159C44.0107 119.601 36.4689 122.158 29.4278 120.482C22.1044 118.739 16.3866 112.694 13.8834 102.186C12.2227 95.2149 13.8587 89.5384 17.4151 85.1728C20.8362 80.9732 25.8425 78.2096 30.6514 76.3636C33.3085 75.3436 36.0042 74.5666 38.5111 73.9755C18.1268 64.5499 7.80703 55.0746 3.17353 46.3644C-2.37962 35.9255 0.59034 27.3212 2.81262 22.8543C6.97562 14.4865 14.6501 9.87882 23.2423 10.2968C31.7265 10.7095 40.4353 15.9679 47.1984 25.8467C48.2589 27.3957 47.8622 29.5106 46.3125 30.5706C44.7627 31.6305 42.6467 31.234 41.5862 29.685C35.6786 21.0558 28.7249 17.3685 22.9118 17.0857C17.2067 16.8081 11.949 19.7553 8.90169 25.8806C7.19289 29.3153 5.06263 35.4376 9.17787 43.1735C13.3912 51.0938 24.4715 61.3649 51.0944 71.9762L68.9375 68.1499L60.2729 3.8525C60.0222 1.99238 61.3277 0.281353 63.1887 0.0308122ZM49.5441 79.0252C49.5145 79.028 49.4844 79.0309 49.4539 79.0339C48.447 79.1322 47.0028 79.2989 45.2829 79.5708C41.8218 80.118 37.343 81.0758 33.0895 82.7086C28.7878 84.36 25.0377 86.5805 22.6884 89.4644C20.4743 92.1823 19.326 95.6886 20.4988 100.612C22.5801 109.349 26.8266 112.876 31.0031 113.87C35.4619 114.932 40.9558 113.39 45.7977 109.735C50.6043 106.107 54.2398 100.774 55.2009 95.1508C56.0753 90.0349 54.8013 84.3637 49.5441 79.0252ZM131.42 57.0874C131.426 57.0834 131.432 57.0793 131.437 57.0753C133.026 55.9386 135.007 54.3741 136.724 52.5945C138.488 50.7665 139.716 48.973 140.179 47.4061C140.571 46.0806 140.451 44.9071 139.305 43.5976C138.561 42.7482 137.791 42.5759 136.741 42.8929C135.481 43.2732 133.898 44.417 132.583 46.304C130.448 49.3695 129.61 53.4291 131.42 57.0874ZM93.7745 62.2116C98.5654 60.8654 101.963 58.4092 103.901 55.9147C106.388 52.7151 106.085 50.2608 105.192 49.1282C104.512 48.2667 103.641 47.9103 102.54 47.9822C101.337 48.0608 99.771 48.6871 98.2317 50.0847C95.7002 52.3831 93.5311 56.5494 93.7745 62.2116Z" fill="white"/>
</svg>
